<svg xmlns="http://www.w3.org/2000/svg" version="1.1" width="1440" height="560" preserveAspectRatio="none"
     viewBox="0 0 1440 560">
    <g mask="url(&quot;#SagsMask1067&quot;)" fill="none">
        <rect width="1440" height="560" x="0" y="0" fill="#0e2a47"></rect>
        <path d="M 0,58 C 72,95.8 216,242.6 360,247 C 504,251.4 576,88 720,80 C 864,72 936,201.2 1080,207 C 1224,212.8 1368,128.6 1440,109L1440 560L0 560z" fill="#184a7e"></path>
        <path d="M 0,542 C 96,494.4 288,304 480,304 C 672,304 768,520.2 960,542 C 1152,563.8 1344,438.8 1440,413L1440 560L0 560z" fill="#2264ab"></path>
    </g>
    <defs>
        <mask id="SagsMask1067">
            <rect width="1440" height="560" fill="#ffffff"></rect>
        </mask>
    </defs>
</svg>